<?xml version="1.0" standalone="no"?>
<!DOCTYPE svg PUBLIC "-//W3C//DTD SVG 20010904//EN"
 "http://www.w3.org/TR/2001/REC-SVG-20010904/DTD/svg10.dtd">
<svg version="1.0" xmlns="http://www.w3.org/2000/svg"
 width="508.000000pt" height="508.000000pt" viewBox="0 0 508.000000 508.000000"
 preserveAspectRatio="xMidYMid meet">
<metadata>
Created by potrace 1.14, written by Peter Selinger 2001-2017
</metadata>
<g transform="translate(0.000000,508.000000) scale(0.100000,-0.100000)"
fill="#000000" stroke="none">
<path d="M1840 4481 c0 -34 -5 -43 -29 -57 -17 -10 -28 -21 -25 -26 3 -5 10
-6 15 -3 5 4 9 2 9 -3 0 -6 -8 -13 -17 -16 -14 -6 -15 -9 -4 -15 10 -7 9 -10
-8 -16 -11 -3 -21 -11 -21 -17 0 -5 7 -7 16 -4 12 4 14 1 9 -14 -4 -12 -2 -20
6 -20 25 0 -13 -29 -67 -51 -30 -13 -54 -26 -54 -31 0 -4 20 -6 45 -4 53 6 58
-6 18 -40 -16 -13 -28 -29 -28 -36 0 -7 -25 -25 -55 -41 -30 -15 -56 -30 -59
-32 -2 -3 22 -3 54 0 49 3 55 2 39 -9 -11 -7 -29 -16 -40 -20 -12 -4 -29 -15
-39 -26 -18 -19 -17 -20 7 -20 14 0 39 5 56 11 17 6 39 9 49 7 10 -2 -21 -16
-69 -31 -93 -30 -111 -42 -53 -35 24 3 35 0 35 -9 0 -15 24 -17 50 -3 13 7 21
6 30 -5 10 -12 6 -17 -22 -29 -18 -8 -49 -21 -70 -30 -20 -9 -41 -16 -46 -16
-6 0 -14 -5 -17 -10 -4 -7 3 -8 21 -4 19 5 25 4 20 -5 -9 -14 28 -15 56 0 14
8 18 8 14 0 -4 -6 -26 -16 -49 -23 l-42 -12 40 -7 c22 -3 33 -7 24 -8 -9 0
-23 -8 -30 -17 -12 -15 -10 -16 19 -10 40 9 42 -2 2 -15 -16 -6 -30 -15 -30
-20 0 -6 7 -6 18 -1 9 5 33 12 52 15 61 11 90 -35 30 -47 -14 -3 -41 -10 -60
-15 -59 -18 -84 -14 -116 22 -63 72 -62 69 -24 66 48 -4 46 12 -3 36 -29 14
-41 27 -42 43 -1 14 4 22 14 22 15 1 15 2 0 13 -9 7 -14 18 -12 25 3 6 -1 12
-7 12 -9 0 -10 3 -1 13 8 11 5 17 -13 27 -19 10 -24 19 -21 42 2 19 0 28 -8
25 -7 -2 -11 -11 -9 -20 1 -8 -7 -22 -18 -30 -11 -7 -17 -17 -13 -20 3 -4 2
-7 -3 -7 -5 0 -10 -9 -11 -20 -1 -11 4 -20 12 -20 22 0 7 -26 -23 -40 -16 -7
-22 -15 -14 -17 6 -3 9 -10 5 -15 -4 -7 2 -9 18 -5 22 6 22 5 -5 -18 -16 -14
-40 -26 -53 -26 -12 -1 -27 -3 -33 -4 -5 -1 -18 -3 -27 -4 -30 -2 7 -21 41
-21 22 0 27 -4 22 -16 -5 -14 -1 -16 28 -11 34 5 35 5 24 -18 -11 -24 -29 -33
-117 -55 -51 -13 -48 -22 11 -26 24 -2 44 -8 46 -14 2 -5 8 -7 14 -4 6 4 9 1
6 -7 -3 -8 -14 -15 -26 -17 -12 -2 -27 -12 -32 -23 -9 -17 -7 -19 17 -20 l28
0 -24 -10 c-27 -11 -56 -17 -83 -18 -25 -1 -22 -21 3 -21 11 0 17 -4 14 -10
-4 -6 11 -10 37 -10 l43 0 -30 -20 c-29 -19 -24 -25 18 -21 9 1 17 -2 17 -7 0
-14 -27 -19 -89 -17 -46 1 -51 0 -36 -11 10 -8 22 -11 28 -7 6 4 7 1 3 -6 -5
-7 -14 -10 -22 -7 -7 3 -16 1 -19 -4 -4 -6 0 -10 7 -11 7 0 38 -2 68 -4 30 -2
59 -4 63 -4 4 -1 7 -9 5 -18 -2 -11 6 -19 22 -23 l25 -7 -26 -7 c-14 -4 -40
-8 -57 -10 -17 -1 -35 -5 -38 -9 -7 -7 11 -10 56 -8 20 0 18 -2 -10 -11 -34
-11 -34 -11 -10 -18 22 -6 19 -8 -20 -14 -81 -11 -105 -14 -122 -15 -28 -1
-21 -21 8 -21 14 0 23 -4 19 -10 -7 -11 5 -14 45 -12 14 1 41 -3 60 -10 l35
-11 -30 -13 c-16 -7 -40 -13 -52 -14 -13 0 -23 -5 -23 -11 0 -7 10 -9 25 -7
26 5 36 -16 13 -25 -7 -3 -3 -6 10 -6 12 -1 39 6 59 14 31 13 34 13 23 0 -7
-8 -19 -15 -26 -15 -17 0 -18 -17 -1 -23 6 -2 -24 -12 -68 -21 -109 -23 -113
-25 -95 -36 10 -6 5 -9 -16 -12 -28 -3 -28 -4 -8 -15 13 -8 33 -9 57 -3 41 9
45 6 20 -18 -15 -15 -14 -17 15 -23 17 -3 45 -15 62 -26 l31 -20 -56 -2 c-52
-1 -128 -23 -149 -42 -11 -9 31 -5 57 6 10 4 23 3 29 -3 11 -11 -2 -17 -72
-27 -58 -9 -247 -52 -257 -58 -6 -4 -10 -873 -4 -922 0 -6 13 -15 29 -22 129
-55 299 -125 307 -127 26 -5 54 -28 61 -48 28 -91 147 -300 218 -381 222 -255
471 -405 786 -473 97 -20 316 -32 306 -15 -4 6 -4 11 1 11 11 0 225 -161 221
-166 -2 -2 -62 -11 -133 -20 -72 -8 -141 -17 -155 -19 -14 -2 -63 -6 -110 -10
-47 -4 -105 -8 -130 -10 -25 -2 -82 -5 -127 -6 -60 -1 -86 -6 -95 -17 -11 -13
5 -14 142 -8 158 6 220 11 323 25 45 6 57 5 57 -6 0 -9 -13 -13 -46 -11 -25 1
-49 -3 -52 -9 -14 -21 -81 -34 -138 -27 -40 4 -55 3 -50 -5 4 -6 15 -11 24
-12 9 0 1 -6 -18 -13 -19 -8 -39 -11 -44 -8 -10 6 -230 13 -224 7 1 -1 21 -5
43 -8 22 -3 47 -8 56 -12 8 -3 26 -2 40 3 17 7 28 6 37 -4 19 -21 92 -22 141
-2 14 6 31 12 38 14 7 1 34 9 60 17 26 9 69 18 96 21 26 3 51 7 55 10 5 3 26
7 48 10 37 5 60 9 114 21 14 4 34 8 45 10 11 3 59 15 107 28 160 43 278 30
428 -49 53 -28 69 -13 24 23 -16 12 -26 23 -23 23 20 0 92 -32 111 -49 l21
-20 -23 -9 c-45 -17 1 -25 154 -27 144 -1 157 -3 271 -38 72 -23 187 -71 290
-122 94 -46 186 -90 207 -98 81 -33 248 -55 248 -33 0 26 -249 206 -284 206
-21 0 -206 58 -319 99 -102 38 -245 154 -305 248 -15 24 -30 43 -34 43 -5 0
-8 4 -8 9 0 14 -102 171 -111 171 -4 0 -10 -4 -13 -8 -6 -10 69 -160 95 -188
10 -11 19 -25 19 -31 0 -6 40 -51 89 -102 48 -50 86 -91 82 -91 -3 0 -28 7
-56 15 -41 13 -225 53 -325 71 -101 19 -273 83 -331 124 l-32 24 -56 -28 c-31
-16 -72 -37 -92 -47 -42 -22 -76 -24 -116 -7 -49 21 -167 102 -154 106 6 2 18
-2 26 -8 14 -11 26 -11 105 5 14 3 37 7 51 10 55 10 188 58 276 100 209 99
419 280 541 469 15 22 52 90 82 149 l55 109 100 40 c55 22 107 43 116 48 8 4
74 32 145 61 71 29 131 53 132 55 2 1 4 211 4 465 l0 463 -22 8 c-24 9 -27 10
-150 33 -47 9 -93 21 -103 26 -10 5 -22 7 -27 4 -5 -3 -11 -1 -15 5 -3 5 -1
10 6 10 40 0 -63 30 -153 45 -38 6 -49 19 -25 28 6 2 0 8 -15 12 -16 4 -28 11
-28 16 0 12 13 11 47 -2 15 -6 36 -12 46 -14 16 -4 17 -2 5 13 -7 9 -17 20
-23 24 -5 4 10 8 35 9 49 0 40 7 -37 28 -24 7 -43 17 -43 23 0 6 3 9 6 6 3 -4
16 0 30 7 15 7 43 10 69 7 35 -3 46 -1 51 12 3 9 14 16 24 16 21 0 38 20 18
21 -7 0 -22 2 -33 5 -11 2 -45 6 -75 9 -30 3 -64 8 -75 12 -18 6 -18 7 5 13
24 7 24 7 -10 18 l-35 10 48 1 c52 1 66 21 15 22 -47 1 -89 9 -107 19 -13 7
-10 9 11 10 15 0 30 5 33 10 3 6 1 10 -6 10 -7 0 -2 9 11 20 16 14 27 17 39
11 9 -5 23 -6 31 -1 8 4 32 7 53 6 43 -3 50 10 10 21 l-28 7 29 6 c48 8 35 25
-16 21 -56 -3 -155 16 -164 31 -7 11 11 8 50 -8 16 -6 18 -4 13 11 -6 15 -5
16 7 6 8 -7 25 -11 38 -8 21 3 20 5 -9 16 -45 18 -41 29 9 28 24 -1 43 4 46
11 2 7 13 12 25 12 30 0 8 19 -29 26 -16 2 -45 10 -64 16 -30 10 -32 12 -15
18 11 4 26 5 33 2 12 -4 12 -1 1 16 -7 11 -26 24 -43 29 -16 4 -31 14 -34 21
-2 7 0 12 5 11 4 -1 21 3 36 9 16 7 41 12 57 12 57 0 39 18 -34 34 -79 18
-101 30 -110 61 -5 19 -3 21 31 17 30 -4 35 -2 30 12 -5 12 0 16 16 16 12 1
36 7 52 15 30 13 30 13 5 15 -14 1 -29 3 -35 5 -5 1 -22 3 -36 3 -15 1 -41 15
-59 31 l-34 29 29 -5 c18 -4 26 -2 21 5 -3 6 -1 12 5 14 6 2 -6 15 -26 30 -37
26 -37 26 -15 38 18 10 20 14 9 21 -12 7 -12 9 0 9 11 0 11 3 1 15 -7 8 -9 15
-4 15 5 0 -2 6 -16 13 -17 9 -27 23 -30 47 -6 39 -15 31 -18 -15 -1 -18 -12
-38 -30 -52 -24 -20 -25 -22 -7 -23 19 -1 19 -1 2 -14 -10 -8 -16 -18 -15 -24
2 -6 -6 -18 -17 -27 -20 -16 -20 -16 2 -12 18 4 21 1 19 -21 -2 -14 -15 -34
-30 -45 -25 -18 -32 -19 -84 -7 -74 16 -98 29 -54 30 50 0 39 30 -16 46 -19 5
-33 12 -33 17 1 4 3 7 6 7 3 0 18 6 35 15 16 8 45 15 65 15 56 0 32 17 -50 35
-76 17 -88 24 -99 62 -6 20 -4 21 36 17 24 -2 37 -1 31 2 -23 10 -14 24 15 24
16 0 36 6 47 14 16 12 13 14 -36 20 -30 4 -69 17 -86 29 -37 25 -45 44 -11 26
18 -10 20 -9 15 5 -4 10 -3 14 2 11 5 -3 12 -1 15 4 3 5 -10 18 -29 30 -39 23
-45 41 -14 41 18 0 19 2 9 15 -9 10 -9 15 -1 15 20 0 12 14 -19 35 -21 14 -30
28 -30 48 0 41 -18 33 -22 -10 -2 -28 -9 -41 -25 -48 -27 -12 -30 -25 -5 -25
16 -1 16 -2 -2 -15 -10 -7 -15 -19 -11 -24 3 -6 -1 -14 -9 -17 -21 -8 -20 -24
0 -24 14 0 14 -3 4 -15 -10 -12 -10 -15 0 -15 23 0 -12 -32 -56 -51 -59 -25
-62 -37 -9 -33 36 4 45 1 45 -11 0 -8 -7 -15 -16 -15 -8 0 -13 -4 -10 -9 3 -5
-1 -11 -9 -15 -8 -3 -15 -10 -15 -16 0 -16 -18 -32 -70 -63 l-45 -27 53 5 c60
5 61 -3 3 -30 -74 -33 -59 -57 22 -34 61 17 67 4 7 -16 -30 -9 -70 -24 -87
-32 -30 -14 -35 -13 -65 4 -18 10 -37 29 -43 41 -5 12 -13 22 -17 22 -4 0 -16
13 -27 29 l-21 29 52 -4 c60 -6 57 1 -14 36 -42 21 -51 30 -52 53 -1 17 3 27
13 27 11 0 10 4 -4 20 -10 11 -14 20 -10 20 4 0 0 9 -10 20 -17 19 -17 20 0
20 13 0 11 6 -13 28 -23 22 -29 34 -25 55 3 16 1 27 -6 27 -6 0 -11 -10 -11
-23 0 -13 -14 -34 -32 -51 -26 -22 -29 -29 -17 -37 10 -6 10 -9 2 -9 -21 0
-14 -17 9 -23 l22 -6 -21 -18 c-12 -10 -30 -23 -40 -29 -15 -9 -16 -13 -4 -27
10 -13 18 -14 35 -6 13 6 8 -1 -13 -20 -18 -17 -40 -31 -47 -31 -8 0 -17 -1
-21 -2 -43 -10 -83 -14 -83 -8 0 5 -18 11 -40 15 -24 4 -40 12 -40 21 0 8 6
11 15 8 8 -4 15 -2 15 3 0 11 10 13 72 16 23 1 43 8 46 15 2 6 -2 12 -10 13
-24 1 -63 9 -114 24 -37 11 -54 22 -62 40 -7 14 -12 27 -12 28 0 1 18 1 40 -1
34 -3 39 -2 34 12 -5 13 0 16 24 16 79 0 81 25 3 34 -32 4 -68 14 -79 24 -11
9 -29 22 -39 29 -15 10 -13 11 16 6 27 -5 32 -3 26 7 -6 10 -4 12 8 7 29 -11
18 2 -23 28 -22 14 -40 30 -40 36 0 5 4 8 8 5 4 -2 14 0 22 5 13 7 13 10 1 18
-9 6 -10 10 -2 12 12 4 -18 44 -39 51 -10 3 -17 24 -19 57 -1 8 -4 11 -7 8 -6
-6 -9 -22 -13 -68 0 -9 -13 -22 -28 -29 -26 -11 -26 -13 -8 -20 19 -7 19 -7 0
-19 -15 -9 -17 -14 -7 -18 10 -4 5 -11 -15 -24 -27 -19 -28 -19 -4 -19 20 0
21 -2 11 -15 -9 -10 -9 -15 -1 -15 28 0 6 -22 -49 -47 -33 -15 -60 -32 -60
-37 0 -4 20 -5 45 -2 25 4 45 4 45 1 0 -20 -96 -115 -130 -129 -22 -9 -40 -18
-40 -21 0 -3 25 -4 55 -1 30 3 55 3 55 1 0 -3 -17 -12 -37 -20 -21 -9 -47 -24
-58 -34 -18 -16 -24 -17 -55 -6 l-35 13 44 1 c43 1 44 2 27 20 -10 10 -32 22
-51 25 -18 4 -36 13 -39 21 -3 9 0 12 8 9 8 -3 17 0 21 5 3 6 10 9 15 6 5 -3
11 -1 15 5 3 5 24 10 45 10 67 0 52 15 -36 34 -69 16 -88 24 -104 46 -23 33
-18 41 19 30 16 -4 35 -4 42 1 10 6 11 9 2 9 -7 0 -13 4 -13 9 0 5 23 12 50
16 59 8 66 24 13 27 -21 0 -42 2 -48 3 -5 2 -17 3 -26 4 -9 0 -32 15 -50 31
-34 30 -34 30 -6 20 38 -14 42 -13 26 7 -12 15 -12 16 6 10 13 -4 8 4 -15 23
-19 17 -38 30 -42 30 -4 0 -8 5 -8 11 0 5 4 8 8 5 4 -2 14 0 22 5 13 8 13 10
0 19 -11 7 -11 10 -2 10 19 0 -3 37 -28 45 -14 4 -20 15 -20 35 0 16 -4 32
-10 35 -6 4 -10 -10 -10 -34z m335 -556 c-35 -16 -65 -19 -65 -6 0 6 15 12 33
14 57 7 63 6 32 -8z m346 -35 c18 9 89 1 89 -11 0 -5 -6 -9 -12 -10 -7 -1 -2
-4 12 -8 14 -5 33 -4 43 1 20 10 21 2 3 -31 -10 -18 -31 -30 -76 -43 -57 -16
-64 -16 -86 -1 -13 8 -24 17 -24 19 0 1 23 1 50 -2 40 -4 50 -2 50 11 0 9 9
15 25 15 14 0 25 5 25 10 0 6 -13 10 -30 10 -16 0 -51 7 -77 16 -54 18 -84 39
-36 25 16 -5 36 -5 44 -1z m-386 -34 c57 -2 55 -18 -7 -43 -59 -25 -112 -25
-168 1 -28 13 -30 15 -10 12 14 -2 34 -7 44 -11 16 -7 18 -5 13 10 -6 15 -5
16 7 6 18 -15 56 -23 56 -11 0 5 -9 11 -19 15 -11 3 -24 12 -31 19 -9 12 -4
13 32 9 24 -3 61 -6 83 -7z m922 -100 c57 11 47 -15 -18 -45 -59 -27 -89 -31
-89 -10 0 5 -8 13 -17 16 -10 4 -31 15 -48 25 l-30 18 53 -5 c30 -3 52 -2 52
4 0 15 44 18 56 4 7 -8 22 -11 41 -7z m-917 10 c0 -3 -4 -8 -10 -11 -5 -3 -10
-1 -10 4 0 6 5 11 10 11 6 0 10 -2 10 -4z m306 -6 c5 -5 40 -11 78 -14 37 -3
71 -7 74 -10 10 -10 -88 -6 -136 5 -52 13 -78 29 -46 29 11 0 24 -4 30 -10z
m-391 -40 c3 -5 14 -6 25 -3 25 7 26 -5 3 -24 -16 -12 -15 -13 15 -8 43 9 41
-1 -4 -20 -45 -19 -109 -19 -149 0 -22 11 -25 14 -10 14 36 -2 61 2 47 8 -22
8 25 52 49 46 11 -3 21 -9 24 -13z m1459 -22 c-10 -13 -25 -27 -31 -31 -7 -4
-13 -15 -13 -24 0 -14 -10 -15 -65 -10 -66 6 -145 36 -98 37 12 0 25 -4 28
-10 3 -5 13 -10 21 -10 8 0 12 5 9 10 -8 13 1 13 25 0 13 -7 21 -7 25 0 3 5
-5 15 -19 22 -38 17 -32 30 12 24 20 -3 44 -1 52 4 8 5 28 10 44 10 l29 0 -19
-22z m-914 8 c0 -3 -4 -8 -10 -11 -5 -3 -10 -1 -10 4 0 6 5 11 10 11 6 0 10
-2 10 -4z m335 -29 c11 -6 28 -10 39 -8 11 1 16 -2 12 -8 -9 -14 19 -14 45 -1
11 7 19 7 19 1 0 -23 -59 -21 -130 3 -40 14 -76 29 -79 32 -9 9 72 -7 94 -19z
m-739 -22 c9 -9 11 -15 4 -15 -6 0 -9 -4 -6 -9 3 -5 -27 -16 -67 -26 -105 -24
-106 -24 -113 -14 -3 5 -2 9 3 8 4 -1 14 -1 22 0 21 2 7 11 -25 17 -48 9 -42
16 9 12 33 -4 53 -1 62 9 32 32 88 41 111 18z m334 5 c0 -5 17 -10 38 -11 l37
-1 -33 -14 c-19 -8 -53 -17 -75 -21 -23 -3 -47 -9 -53 -14 -6 -5 -18 -3 -30 6
-10 9 -14 15 -9 14 29 -4 45 3 45 19 0 10 3 22 7 25 10 11 73 8 73 -3z m479
-41 l23 1 -23 -20 -24 -20 35 6 35 5 -35 -21 c-34 -20 -34 -21 -6 -15 86 18
84 18 91 -5 4 -12 5 -23 3 -25 -6 -7 -121 -35 -139 -35 -12 0 -17 7 -16 20 1
18 6 20 32 14 44 -9 20 9 -40 31 -97 34 -130 72 -55 61 26 -3 40 -1 40 5 0 7
10 9 28 5 15 -4 38 -7 51 -7z m-1355 -36 c-10 -7 -14 -13 -9 -13 5 0 -1 -9
-12 -20 -20 -18 -24 -19 -70 -3 -26 8 -52 20 -58 25 -6 6 -5 7 5 4 8 -3 26 -7
40 -10 14 -2 30 -6 37 -8 6 -1 10 1 10 5 -2 11 39 34 60 34 13 0 12 -3 -3 -14z
m919 -26 c-16 -27 -92 -42 -112 -22 -3 4 6 4 21 1 42 -7 43 7 1 19 -37 11 -36
11 29 11 36 -1 64 -4 61 -9z m881 -2 c-10 -8 -26 -15 -35 -15 -8 0 -26 -11
-39 -25 -17 -19 -29 -23 -49 -19 -25 6 -58 28 -36 24 25 -5 46 1 42 13 -6 18
26 32 85 35 47 2 50 1 32 -13z m-1694 -35 c0 -14 -74 -40 -115 -40 -45 0 -69
-15 -38 -23 15 -4 15 -5 -2 -5 -28 -1 -91 31 -85 43 3 6 15 9 27 7 12 -1 24 2
28 7 3 6 12 8 21 4 8 -3 23 2 34 12 10 9 23 14 29 10 6 -3 18 -2 27 3 16 9 74
-5 74 -18z m884 -1 c-9 -15 -34 -10 -28 5 3 8 12 12 20 9 8 -3 11 -9 8 -14z
m-54 7 c0 -2 -7 -7 -16 -10 -8 -3 -12 -2 -9 4 6 10 25 14 25 6z m349 -22 c14
-12 -19 -1 -35 12 -18 14 -18 14 6 3 14 -6 27 -13 29 -15z m-834 -11 c-8 -8
-15 -17 -15 -19 0 -6 77 3 90 11 6 3 10 1 10 -4 0 -6 9 -11 20 -11 31 0 24
-14 -15 -33 -39 -19 -102 -22 -125 -7 -11 7 -1 10 34 10 27 0 47 2 44 5 -6 6
-15 8 -85 20 -23 3 -48 14 -55 23 -7 9 -9 14 -4 10 4 -3 24 -1 44 6 20 7 44
11 54 8 15 -4 15 -6 3 -19z m1375 7 c-8 -5 -26 -9 -40 -9 -23 0 -23 1 -5 9 11
5 29 9 40 9 17 1 17 -1 5 -9z m-535 -38 c-3 -3 -11 0 -18 7 -9 10 -8 11 6 5
10 -3 15 -9 12 -12z m-418 -34 c7 -6 18 -6 29 0 12 7 22 5 35 -6 25 -21 15
-32 -24 -26 -54 10 -97 25 -93 33 7 11 39 10 53 -1z m448 2 c-3 -5 -15 -10
-26 -10 -10 0 -19 5 -19 10 0 6 12 10 26 10 14 0 23 -4 19 -10z m72 -1 c-9 -6
-15 -14 -12 -19 3 -4 -2 -10 -10 -14 -8 -3 -15 -13 -15 -21 0 -10 5 -13 12 -9
7 5 19 9 28 9 8 1 26 5 39 9 16 6 21 5 17 -3 -5 -7 2 -11 16 -11 23 -1 23 -1
-5 -23 -30 -25 -105 -36 -117 -17 -4 6 -40 20 -80 30 -40 10 -77 25 -81 32
-12 18 21 41 46 32 46 -14 83 -15 115 -1 41 18 75 22 47 6z m352 1 c-6 -5 -18
-6 -26 -3 -19 8 -16 11 13 11 17 0 22 -3 13 -8z m-2069 -10 c-20 -13 -33 -13
-25 0 3 6 14 10 23 10 15 0 15 -2 2 -10z m678 -8 c12 -1 32 -7 45 -13 17 -7
13 -9 -22 -5 -24 2 -51 12 -60 22 -13 13 -13 15 -1 8 8 -5 25 -10 38 -12z
m1472 10 c0 -4 -11 -9 -25 -10 -14 -1 -25 3 -25 8 0 6 11 10 25 10 14 0 25 -4
25 -8z m-890 -51 c9 -2 -24 -21 -36 -21 -7 0 -15 7 -18 15 -5 15 3 16 54 6z
m-1035 -41 c-3 -5 -17 -10 -31 -10 -14 0 -22 4 -19 10 3 6 17 10 31 10 14 0
22 -4 19 -10z m1880 0 c-3 -5 -11 -10 -16 -10 -6 0 -7 5 -4 10 3 6 11 10 16
10 6 0 7 -4 4 -10z m-1809 -45 c-2 -5 -10 -8 -17 -6 -8 2 -22 3 -31 3 -10 0
-18 4 -18 9 0 5 16 9 35 7 20 -1 34 -7 31 -13z m104 -4 c0 -5 -7 -17 -17 -26
-11 -12 -13 -19 -5 -24 7 -4 0 -11 -17 -18 -21 -8 -35 -7 -57 3 l-29 14 38 -3
c40 -3 50 8 17 18 -28 9 -25 24 8 31 15 3 32 7 37 9 18 6 25 5 25 -4z m1652
-31 c21 -1 21 -2 5 -11 -14 -8 -24 -7 -43 5 -29 19 -32 31 -5 16 11 -5 30 -10
43 -10z m105 -26 c14 -13 14 -17 2 -24 -8 -6 -18 -5 -23 0 -6 6 -20 10 -33 10
-27 0 -31 16 -5 23 32 9 43 7 59 -9z m-2210 -300 c-3 -3 -12 -4 -19 -1 -8 3
-5 6 6 6 11 1 17 -2 13 -5z m1493 -1977 c0 -14 -94 -67 -117 -67 -26 1 -26 2
10 14 21 8 46 21 55 29 14 12 29 20 50 26 1 1 2 0 2 -2z m324 -322 c7 -20 -25
-7 -42 17 -13 18 -42 25 -42 10 0 -4 5 -13 12 -20 8 -8 8 -12 1 -12 -6 0 -16
7 -23 15 -16 19 -42 20 -38 1 3 -16 -7 -19 -35 -10 -11 4 -23 -1 -31 -12 -13
-16 -36 -12 -36 6 0 11 72 49 109 60 28 7 116 -31 125 -55z m-263 -16 c24 -20
24 -20 2 -9 -13 6 -24 8 -24 5 -1 -3 -2 -11 -3 -17 0 -7 -8 -13 -16 -14 -8 0
-27 -5 -43 -12 -39 -17 -69 -21 -92 -12 -15 5 -7 9 30 14 75 10 107 26 102 48
-7 24 15 23 44 -3z m-211 -66 c25 -9 -17 -20 -54 -15 -25 4 -28 6 -11 12 25 9
46 10 65 3z"/>
</g>
</svg>
